<svg xmlns="http://www.w3.org/2000/svg" xml:space="preserve" viewBox="28.31 352.15 1023.39 377.48">
  <path style="stroke:none;stroke-width:1;stroke-dasharray:none;stroke-linecap:butt;stroke-dashoffset:0;stroke-linejoin:miter;stroke-miterlimit:4;fill:#fff;fill-rule:nonzero;opacity:1" vector-effect="non-scaling-stroke" transform="matrix(.13 0 0 -.13 28.308 729.623)" d="M0 135.152c8.617 0 15.754 1.688 21.324 5.078 5.586 3.461 10.008 8.18 13.266 14.09 3.242 5.961 5.465 13.051 6.734 21.36 1.25 8.32 1.903 17.281 1.903 27.039v399.48c0 20.512-2.782 35.321-8.387 44.34-5.567 8.981-17.184 13.5-34.84 13.5v130.82h556.793V552.512H392.984v6.98c0 15.156-1.429 27.867-4.316 38.129-2.891 10.258-7.844 18.57-14.859 24.848-7.032 6.34-16.508 10.82-28.387 13.492-11.899 2.758-26.684 4.059-44.352 4.059h-72.941V483.789h213.527V352.43H228.129V202.719c0-9.758.601-18.719 1.871-27.039 1.27-8.309 3.523-15.399 6.77-21.36 3.218-5.91 7.644-10.629 13.23-14.09 5.586-3.39 12.703-5.078 21.34-5.078V15.641H0v119.511"/>
  <path style="stroke:none;stroke-width:1;stroke-dasharray:none;stroke-linecap:butt;stroke-dashoffset:0;stroke-linejoin:miter;stroke-miterlimit:4;fill:#fff;fill-rule:nonzero;opacity:1" vector-effect="non-scaling-stroke" transform="matrix(.13 0 0 -.13 29.88 729.623)" d="M614.629 135.152c8.668 0 15.769 1.688 21.355 5.078 5.586 3.461 9.993 8.18 13.254 14.09 3.258 5.961 5.481 13.051 6.746 21.36 1.274 8.32 1.887 17.281 1.887 27.039v399.48c0 20.512-3.047 35.321-9.18 44.34-6.132 8.981-17.5 13.5-34.062 13.5v130.82H886v-130.82c-16.211 0-27.469-4.519-33.777-13.5-6.309-9.019-9.465-23.828-9.465-44.34v-399.48c0-9.758.617-18.719 1.906-27.039 1.25-8.309 3.524-15.399 6.746-21.36 3.242-5.91 7.633-10.629 13.235-14.09 5.605-3.39 12.703-5.078 21.355-5.078V15.641H614.629v119.511"/>
  <path style="stroke:none;stroke-width:1;stroke-dasharray:none;stroke-linecap:butt;stroke-dashoffset:0;stroke-linejoin:miter;stroke-miterlimit:4;fill:#fff;fill-rule:nonzero;opacity:1" vector-effect="non-scaling-stroke" transform="matrix(.13 0 0 -.13 31.488 729.621)" d="M1496.86 66.46c-23.05-12.929-44.69-23.679-64.87-32.179-20.17-8.449-40.53-15.289-61.09-20.5-20.53-5.222-41.89-8.851-64.05-10.82C1284.68.94 1260.08 0 1233.06 0c-88.28 0-154.8 16.281-199.46 48.91-44.705 32.602-67.045 82.051-67.045 148.379v411.93c0 67.351 22.605 117.011 67.835 148.929 45.24 31.934 112.54 47.864 201.9 47.864 46.15 0 91.1-4.973 134.89-14.903 43.77-9.867 85.68-24.039 125.68-42.437V550.32h-169.19c0 15.481-1.81 29.891-5.42 43.25-3.64 13.321-9.15 24.95-16.55 34.852-7.42 9.91-16.62 17.66-27.65 23.187-11.03 5.672-24.1 8.43-39.33 8.43-28.9 0-50.35-10.539-64.23-31.617-13.94-21.113-20.9-49.274-20.9-84.59V255.648c0-31.679 6.87-55.257 20.6-70.769 13.74-15.539 35.26-23.258 64.53-23.258 31.81 0 54.61 8.18 68.34 24.57 13.72 16.45 20.61 41.579 20.61 75.418v40.563h-75.17v112.957h244.36V66.461"/>
  <path style="stroke:none;stroke-width:1;stroke-dasharray:none;stroke-linecap:butt;stroke-dashoffset:0;stroke-linejoin:miter;stroke-miterlimit:4;fill:#fff;fill-rule:nonzero;opacity:1" vector-effect="non-scaling-stroke" transform="matrix(.13 0 0 -.13 33.696 729.623)" d="M1578.52 135.152c17.64 0 29.27 5.328 34.85 15.899 5.59 10.648 8.37 25.66 8.37 45.179v405.969c0 20.512-2.69 35.321-8.1 44.34-5.41 8.981-17.13 13.5-35.12 13.5v130.82h271.37v-130.82c-17.32 0-28.86-4.519-34.59-13.5-5.8-9.019-8.67-23.828-8.67-44.34V485.961h174.62v116.238c0 10.11-.55 18.821-1.61 26.223-1.11 7.367-3.2 13.43-6.24 18.117-3.06 4.691-7.29 8.109-12.72 10.293-5.39 2.148-12.62 3.207-21.6 3.207v130.82h271.37v-130.82c-15.51 0-26.43-4.758-32.71-14.309-6.3-9.589-9.48-24.039-9.48-43.531V196.23c0-19.519 2.91-34.531 8.67-45.179 5.75-10.571 16.96-15.899 33.52-15.899V15.641h-271.37v119.511c17.28 0 28.65 5.328 34.04 15.899 5.41 10.648 8.13 25.66 8.13 45.179v159.481h-174.62V196.23c0-19.519 2.87-34.531 8.67-45.179 5.73-10.571 17.27-15.899 34.59-15.899V15.641h-271.37v119.511"/>
  <path style="stroke:none;stroke-width:1;stroke-dasharray:none;stroke-linecap:butt;stroke-dashoffset:0;stroke-linejoin:miter;stroke-miterlimit:4;fill:#fff;fill-rule:nonzero;opacity:1" vector-effect="non-scaling-stroke" transform="matrix(.13 0 0 -.13 36.027 729.623)" d="M2458.54 135.152c8.66 0 15.88 1.688 21.63 5.078 5.78 3.461 10.38 8.18 13.81 14.09 3.42 5.961 5.75 13.051 7 21.36 1.25 8.32 1.92 17.281 1.92 27.039v457.32c-13.34 0-24.71-2.578-34.04-7.828-9.42-5.289-17.06-12.481-23.02-21.641-5.96-9.238-10.25-20.261-12.97-33.23-2.67-12.969-4.03-27.25-4.03-42.68v-69.75h-150.85v305.949h633.59V484.91h-150.84v69.75c0 15.43-1.36 29.711-4.05 42.68-2.72 12.969-6.94 23.992-12.69 33.23-5.78 9.16-13.44 16.352-22.98 21.641-9.56 5.25-21.01 7.828-34.33 7.828v-457.32c0-19.418 3.05-35.59 9.2-48.399 6.1-12.789 17.86-19.168 35.13-19.168V15.641h-272.48v119.511"/>
  <path style="stroke:none;stroke-width:1;stroke-dasharray:none;stroke-linecap:butt;stroke-dashoffset:0;stroke-linejoin:miter;stroke-miterlimit:4;fill:#ed1c24;fill-rule:nonzero;opacity:1" vector-effect="non-scaling-stroke" transform="matrix(.13 0 0 -.13 38.612 729.623)" d="M2979.15 135.152c15.82 0 27.03 6.379 33.51 19.168 6.47 12.809 9.73 28.981 9.73 48.399v399.48c0 20.512-3 35.321-8.92 44.34-5.96 8.981-17.41 13.5-34.32 13.5v130.82h305.43l92.97-375.73c15.49 61.281 30.8 124.019 45.95 188.133 15.13 64.179 30.8 126.699 47.01 187.597h291.39v-130.82c-17.29 0-28.79-4.519-34.61-13.5-5.78-9.019-8.63-23.828-8.63-44.34v-399.48c0-9.34.6-18.219 1.88-26.469 1.29-8.32 3.51-15.508 6.75-21.641 3.24-6.14 7.69-10.918 13.25-14.379 5.59-3.39 12.71-5.078 21.36-5.078V15.641h-271.37v119.511c14.8 0 25.34 6.379 31.61 19.168 6.31 12.809 9.48 28.981 9.48 48.399v317.89L3395.41 15.641h-87.6l-131.9 503.851V202.719c0-19.418 3.06-35.59 9.16-48.399 6.17-12.789 17.52-19.168 34.08-19.168V15.641h-240v119.511"/>
  <path style="stroke:none;stroke-width:1;stroke-dasharray:none;stroke-linecap:butt;stroke-dashoffset:0;stroke-linejoin:miter;stroke-miterlimit:4;fill:#ed1c24;fill-rule:nonzero;opacity:1" vector-effect="non-scaling-stroke" transform="matrix(.13 0 0 -.13 41.165 729.623)" d="m4113.84 600.02-52.97-244.309h112.96zm280.57-391.911c3.25-10.437 6.27-19.73 9.18-27.879 2.87-8.07 6.02-15.121 9.45-21 3.43-5.988 7.38-10.929 11.89-14.878 4.51-4.012 10.19-7.012 17.06-9.2V15.641h-275.72v119.511c13.69 0 24.12 4.09 31.35 12.418 7.18 8.282 10.84 18.18 10.84 29.731l-11.37 67.531h-155.18l-9.71-68.582c0-11.57 3.79-21.32 11.34-29.219 7.57-7.929 18.57-11.879 32.98-11.879V15.641h-247.06v119.511c6.87 0 12.53 1.688 17.04 5.078 4.53 3.461 8.41 8.59 11.62 15.442 3.28 6.84 6.15 15.148 8.67 24.867 2.54 9.742 5.25 20.871 8.1 33.531 21.25 96.91 41.62 193.16 61.08 288.641a30228.227 30228.227 0 0 1 57.32 288.148h277.86l123.26-582.75"/>
  <path style="stroke:none;stroke-width:1;stroke-dasharray:none;stroke-linecap:butt;stroke-dashoffset:0;stroke-linejoin:miter;stroke-miterlimit:4;fill:#ed1c24;fill-rule:nonzero;opacity:1" vector-effect="non-scaling-stroke" transform="matrix(.13 0 0 -.13 43.302 729.62)" d="M4687.94 272.43c0-17.309 1.14-32.879 3.51-46.77 2.34-13.89 6.66-25.48 12.96-34.851 6.29-9.379 14.86-16.598 25.68-21.61 10.8-5.039 24.69-7.578 41.61-7.578 28.13 0 50.85 6.629 68.15 20.02 17.28 13.328 25.93 32.961 25.93 58.89 0 18.051-5.13 33.278-15.4 45.68-10.27 12.441-23.97 23.539-41.08 33.23-17.14 9.731-36.5 18.571-58.14 26.539-21.6 7.891-43.68 16.352-66.2 25.372-22.52 9-44.58 19.109-66.2 30.277-21.62 11.172-41.03 24.812-58.13 40.812-17.13 16.028-30.83 35.039-41.1 57.059-10.25 21.992-15.4 48.469-15.4 79.469 0 36.41 6.13 68.801 18.39 97.281 12.24 28.469 30.18 52.48 53.79 71.93 23.61 19.449 52.4 34.332 86.46 44.582 34.11 10.258 73.12 15.398 117.06 15.398 24.13 0 48.3-2.109 72.45-6.199 24.13-4.16 47.49-10.082 70.01-17.832 22.49-7.758 43.84-17.059 64.08-27.84 20.11-10.82 38.34-22.949 54.55-36.269v-169.7h-179.46c0 17.27-1.2 32.782-3.52 46.489-2.34 13.64-6.57 25.242-12.7 34.57-6.14 9.383-14.6 16.57-25.44 21.363-10.79 4.828-24.66 7.297-41.59 7.297-11.55 0-22.69-2.117-33.51-6.238-10.8-4.129-20.4-9.66-28.66-16.699-8.3-7.051-14.87-15.27-19.75-24.641-4.84-9.34-7.28-19.281-7.28-29.711 0-15.859 5.26-29.008 15.69-39.469 10.47-10.472 24.21-19.851 41.34-28.101 17.12-8.309 36.58-16.032 58.36-23.258 21.82-7.223 44.16-15.152 67.06-23.793 22.89-8.629 45.23-18.75 67.05-30.27 21.77-11.55 41.25-25.937 58.37-43.199 17.13-17.379 30.87-38.031 41.34-62.168 10.45-24.183 15.69-53.051 15.69-86.531 0-38.199-6.31-72.531-18.91-102.981-12.64-30.48-30.8-56.238-54.59-77.359-23.79-21.039-52.98-37.281-87.62-48.562C4858.22 5.672 4818.93 0 4774.97 0c-48.32 0-95.16 7.469-140.55 22.45-45.41 14.94-89.74 37-132.97 66.179V272.43h186.49"/>
  <path style="stroke:none;stroke-width:1;stroke-dasharray:none;stroke-linecap:butt;stroke-dashoffset:0;stroke-linejoin:miter;stroke-miterlimit:4;fill:#ed1c24;fill-rule:nonzero;opacity:1" vector-effect="non-scaling-stroke" transform="matrix(.13 0 0 -.13 45.48 729.623)" d="M5293.39 135.152c8.65 0 15.88 1.688 21.64 5.078 5.76 3.461 10.34 8.18 13.8 14.09 3.4 5.961 5.7 13.051 6.99 21.36 1.25 8.32 1.92 17.281 1.92 27.039v457.32c-13.36 0-24.7-2.578-34.06-7.828-9.41-5.289-17.04-12.481-23.02-21.641-5.91-9.238-10.23-20.261-12.95-33.23-2.71-12.969-4.05-27.25-4.05-42.68v-69.75h-150.85v305.949h633.62V484.91h-150.84v69.75c0 15.43-1.38 29.711-4.08 42.68-2.71 12.969-6.94 23.992-12.67 33.23-5.78 9.16-13.46 16.352-22.98 21.641-9.57 5.25-21.01 7.828-34.36 7.828v-457.32c0-19.418 3.08-35.59 9.23-48.399 6.1-12.789 17.83-19.168 35.11-19.168V15.641h-272.45v119.511"/>
  <path style="stroke:none;stroke-width:1;stroke-dasharray:none;stroke-linecap:butt;stroke-dashoffset:0;stroke-linejoin:miter;stroke-miterlimit:4;fill:#ed1c24;fill-rule:nonzero;opacity:1" vector-effect="non-scaling-stroke" transform="matrix(.13 0 0 -.13 47.713 729.623)" d="M5815.04 135.152c8.65 0 15.79 1.688 21.34 5.078 5.6 3.461 9.94 8.18 12.99 14.09 3.05 5.961 5.14 13.051 6.24 21.36 1.05 8.32 1.62 17.281 1.62 27.039v399.48c0 10.11-.57 18.821-1.62 26.223-1.1 7.367-3.19 13.43-6.24 18.117-3.05 4.691-7.48 8.109-13.26 10.293-5.74 2.148-13.16 3.207-22.13 3.207v130.82h571.37v-239.48h-171.88c0 15.512-1.17 28.832-3.53 40-2.34 11.18-6.41 20.34-12.18 27.562-5.77 7.231-13.6 12.508-23.48 15.969-9.94 3.422-22.26 5.11-37.02 5.11h-95.16V484.91h225.96V355.711H6042.1v-194.09h95.16c12.96 0 24.31 1.41 34.01 4.059 9.76 2.679 17.69 7.3 23.8 13.781 6.11 6.48 10.71 14.969 13.8 25.371 3.06 10.5 4.6 23.477 4.6 38.988v29.7h171.88V15.64h-571.37l1.06 119.512"/>
  <path style="stroke:none;stroke-width:1;stroke-dasharray:none;stroke-linecap:butt;stroke-dashoffset:0;stroke-linejoin:miter;stroke-miterlimit:4;fill:#ed1c24;fill-rule:nonzero;opacity:1" vector-effect="non-scaling-stroke" transform="matrix(.13 0 0 -.13 49.909 729.623)" d="M6685.39 459.5h63.81c10.81 0 20.18.211 28.11.781 7.94.559 14.95 1.469 21.09 2.739 6.1 1.23 11.71 3 16.75 5.39 5.04 2.371 10.07 5.301 15.11 8.922 7.97 5.387 14.53 15.02 19.76 28.91 5.23 13.867 7.84 29.988 7.84 48.418 0 17.27-1.9 31.75-5.69 43.488-3.79 11.704-10.1 21.25-18.93 28.614-8.81 7.41-20.53 12.769-35.13 15.968-14.59 3.239-32.69 4.86-54.32 4.86h-58.4zm-227.03-324.348c16.23 0 27.47 5.68 33.78 17.02 6.31 11.348 9.44 26.75 9.44 46.219v403.808c0 20.512-2.76 35.321-8.37 44.34-5.56 8.981-17.19 13.5-34.85 13.5v130.82h343.27c40.02 0 75.14-4.058 105.41-12.16 30.27-8.109 55.6-21.078 75.95-38.91 20.37-17.828 35.59-41.019 45.67-69.5 10.09-28.437 15.15-62.91 15.15-103.219 0-24.859-2.34-46.769-7.03-65.699-4.69-18.891-11.99-35.519-21.88-49.73-9.92-14.2-22.45-26.399-37.61-36.512-15.11-10.078-33.12-18.539-54.02-25.418l1.08-6.481c36.03-6.449 61.62-18.601 76.73-36.48 15.16-17.828 22.74-43.34 22.74-76.469v-62.172c0-8.988.81-17.91 2.45-26.718 1.57-8.871 3.94-16.77 6.98-23.789 3.07-7.082 6.87-12.832 11.36-17.372 4.51-4.468 9.82-6.941 15.97-7.23V15.64h-201.66c-2.86 7.579-5.37 14.95-7.54 22.169-2.21 7.261-3.99 15.16-5.41 23.793-1.47 8.667-2.43 18.57-2.98 29.738-.57 11.219-.79 24.68-.79 40.57v91.91c0 19.039-1.12 35.039-3.28 47.801-2.15 12.789-6.4 22.981-12.71 30.551-6.31 7.578-15.22 12.969-26.77 16.219-11.5 3.281-26.66 4.859-45.39 4.859h-68.66V198.391c0-19.469 3.17-34.871 9.48-46.219 6.3-11.34 17.92-17.02 34.87-17.02V15.641h-271.38v119.511"/>
  <path style="stroke:none;stroke-width:1;stroke-dasharray:none;stroke-linecap:butt;stroke-dashoffset:0;stroke-linejoin:miter;stroke-miterlimit:4;fill:#ed1c24;fill-rule:nonzero;opacity:1" vector-effect="non-scaling-stroke" transform="matrix(.13 0 0 -.13 52.093 729.62)" d="M7323.32 272.43c0-17.309 1.11-32.879 3.51-46.77 2.3-13.89 6.66-25.48 12.95-34.851 6.3-9.379 14.84-16.598 25.67-21.61 10.82-5.039 24.68-7.578 41.62-7.578 28.13 0 50.83 6.629 68.14 20.02 17.28 13.328 25.93 32.961 25.93 58.89 0 18.051-5.11 33.278-15.4 45.68-10.27 12.441-23.95 23.539-41.08 33.23-17.13 9.731-36.5 18.571-58.12 26.539-21.62 7.891-43.68 16.352-66.22 25.372-22.5 9-44.6 19.109-66.22 30.277-21.62 11.172-40.98 24.812-58.09 40.812-17.15 16.028-30.82 35.039-41.1 57.059-10.26 21.992-15.39 48.469-15.39 79.469 0 36.41 6.11 68.801 18.37 97.281 12.25 28.469 30.15 52.48 53.76 71.93 23.61 19.449 52.46 34.332 86.5 44.582 34.09 10.258 73.08 15.398 117.04 15.398 24.15 0 48.3-2.109 72.45-6.199 24.13-4.16 47.5-10.082 70.02-17.832 22.48-7.758 43.83-17.059 64.05-27.84 20.16-10.82 38.36-22.949 54.59-36.269v-169.7h-179.47c0 17.27-1.19 32.782-3.53 46.489-2.32 13.64-6.56 25.242-12.69 34.57-6.13 9.383-14.59 16.57-25.41 21.363-10.82 4.828-24.69 7.297-41.65 7.297-11.53 0-22.69-2.117-33.49-6.238-10.8-4.129-20.39-9.66-28.65-16.699-8.32-7.051-14.86-15.27-19.74-24.641-4.84-9.34-7.29-19.281-7.29-29.711 0-15.859 5.21-29.008 15.66-39.469 10.49-10.472 24.25-19.851 41.38-28.101 17.11-8.309 36.56-16.032 58.37-23.258 21.79-7.223 44.14-15.152 67.03-23.793 22.89-8.629 45.21-18.75 67.05-30.27 21.76-11.55 41.25-25.937 58.4-43.199 17.09-17.379 30.88-38.031 41.31-62.168 10.47-24.183 15.71-53.051 15.71-86.531 0-38.199-6.33-72.531-18.93-102.981-12.62-30.48-30.8-56.238-54.61-77.359-23.79-21.039-52.97-37.281-87.56-48.562C7493.59 5.672 7454.3 0 7410.35 0c-48.32 0-95.15 7.469-140.55 22.45-45.41 14.94-89.76 37-133 66.179V272.43h186.52"/>
  <path style="stroke:none;stroke-width:1;stroke-dasharray:none;stroke-linecap:butt;stroke-dashoffset:0;stroke-linejoin:miter;stroke-miterlimit:4;fill:#fff;fill-rule:nonzero;opacity:1" vector-effect="non-scaling-stroke" transform="matrix(.13 0 0 -.13 41.712 724.524)" d="M4502.84 2864.45c-273.89-120.48-495.71-277.5-659.86-452.42-164.48 174.65-386.62 331.38-660.8 451.47-291.21-65.01-574.43-173.47-838.9-325.37 449.78-21.88 839.94-177.52 1070.05-403.73 190.01-105.2 336.13-237.65 431.3-381.11 210.63 317.35 669.78 581.56 1304.76 613.79-377.45-423.22-754.91-846.46-1132.38-1269.68 41.32-23.08 78.88-55.19 109.7-96.24 708.95 243.85 1417.91 487.68 2126.92 731.54-455.22 606.25-1082.03 983.52-1750.79 1131.75"/>
  <path style="stroke:none;stroke-width:1;stroke-dasharray:none;stroke-linecap:butt;stroke-dashoffset:0;stroke-linejoin:miter;stroke-miterlimit:4;fill:#ed1c24;fill-rule:nonzero;opacity:1" vector-effect="non-scaling-stroke" transform="matrix(.13 0 0 -.13 37.43 725.067)" d="M3501.73 1288.6c-113.16 126.9-226.33 253.8-339.49 380.69 134.91 75.46 280.04 126.79 428.82 153.96-128.91 108.34-295.25 199.92-494.29 262.8-73.02-29.84-144.62-64.18-214.27-103.14-114.18 128.04-228.37 256.09-342.63 384.17 348-17.68 643.02-105.12 873.46-232.68-225.57 221.74-605.09 375.34-1043.65 401.94-65.39-232.09 124.82-649.98 483.36-1019.78 242.37-249.98 509.06-423.66 728.75-492.11-6.64-7.43-13.06-15.16-19.19-23.29 30.8 41.05 68.34 73.16 109.68 96.24-56.85 63.73-113.66 127.48-170.55 191.2"/>
  <path style="stroke:none;stroke-width:1;stroke-dasharray:none;stroke-linecap:butt;stroke-dashoffset:0;stroke-linejoin:miter;stroke-miterlimit:4;fill:#fff;fill-rule:nonzero;opacity:1" vector-effect="non-scaling-stroke" transform="matrix(.13 0 0 -.13 35.745 725.063)" d="M2853.04 1516.56c-358.67 369.94-548.91 788.01-483.29 1020.05-8.81.53-17.6 1.08-26.47 1.52-341.43-196.04-651.66-464.52-907.62-805.43 621.52-213.74 1243.02-427.53 1864.46-641.25 87.51-30.13 174.97-60.23 262.48-90.29 6.13 8.13 12.55 15.86 19.19 23.29-219.69 68.45-486.38 242.13-728.75 492.11"/>
</svg>